<svg height="515" width="480" xmlns="http://www.w3.org/2000/svg">
 <!-- Created with Image Occlusion Enhanced -->
 <g>
  <title>Labels</title>
 </g>
 <g>
  <title>Masks</title>
  <rect fill="#FFEBA2" height="21.77895" id="2c32669d09604544b78cfe8cba679430-ao-1" stroke="#2D2D2D" width="60.41902" x="163.53286" y="39.30937"/>
  <rect fill="#FFEBA2" height="18.96876" id="2c32669d09604544b78cfe8cba679430-ao-2" stroke="#2D2D2D" width="85.00816" x="78.5247" y="415.17191"/>
  <rect fill="#FFEBA2" height="18.26622" id="2c32669d09604544b78cfe8cba679430-ao-3" stroke="#2D2D2D" width="115.92022" x="32.15661" y="387.07003"/>
  <rect fill="#FFEBA2" height="18.26622" id="2c32669d09604544b78cfe8cba679430-ao-4" stroke="#2D2D2D" width="61.12157" x="213.41368" y="469.26801"/>
  <rect fill="#FFEBA2" height="17.56367" id="2c32669d09604544b78cfe8cba679430-ao-5" stroke="#2D2D2D" width="68.14704" x="297.7193" y="476.99602"/>
  <rect fill="#FFEBA2" height="19.67131" id="2c32669d09604544b78cfe8cba679430-ao-6" stroke="#2D2D2D" width="74.46996" x="136.83608" y="457.32471"/>
  <rect fill="#FFEBA2" height="14.75348" id="2c32669d09604544b78cfe8cba679430-ao-7" stroke="#2D2D2D" width="114.51513" x="79.22724" y="439.0585"/>
  <rect fill="#FFEBA2" height="20.37386" id="2c32669d09604544b78cfe8cba679430-ao-8" stroke="#2D2D2D" width="92.73618" x="379.91727" y="393.39296"/>
  <rect fill="#FFEBA2" height="22.4815" id="2c32669d09604544b78cfe8cba679430-ao-9" stroke="#2D2D2D" width="85.00816" x="382.02491" y="439.76104"/>
  <rect fill="#FFEBA2" height="17.56367" id="2c32669d09604544b78cfe8cba679430-ao-10" stroke="#2D2D2D" width="96.24891" x="380.61982" y="301.35933"/>
  <rect fill="#FFEBA2" height="27.39932" id="2c32669d09604544b78cfe8cba679430-ao-11" stroke="#2D2D2D" width="55.5012" x="30.75152" y="246.56068"/>
  <rect fill="#FFEBA2" height="15.45603" id="2c32669d09604544b78cfe8cba679430-ao-12" stroke="#2D2D2D" width="54.79865" x="55.34065" y="356.15798"/>
  <rect fill="#FFEBA2" height="16.15858" id="2c32669d09604544b78cfe8cba679430-ao-13" stroke="#2D2D2D" width="76.5776" x="380.61982" y="278.17528"/>
  <rect fill="#FFEBA2" height="28.10187" id="2c32669d09604544b78cfe8cba679430-ao-14" stroke="#2D2D2D" width="59.01393" x="30.75152" y="187.54675"/>
  <rect class="qshape" fill="#FF7E7E" height="28.10187" id="2c32669d09604544b78cfe8cba679430-ao-15" stroke="#2D2D2D" width="103.27438" x="7.56747" y="282.39056"/>
  <rect fill="#FFEBA2" height="22.4815" id="2c32669d09604544b78cfe8cba679430-ao-16" stroke="#2D2D2D" width="92.73618" x="380.61982" y="361.0758"/>
 </g>
</svg>