<svg height="711" width="670" xmlns="http://www.w3.org/2000/svg">
 <!-- Created with Image Occlusion Enhanced -->
 <g>
  <title>Labels</title>
 </g>
 <g>
  <title>Masks</title>
  <rect fill="#FFEBA2" height="23.83641" id="d56d8ac5fccd45519164294b0eb09697-ao-1" stroke="#2D2D2D" width="165.9014" x="147.11207" y="13.62678"/>
  <rect class="qshape" fill="#FF7E7E" height="21.9295" id="d56d8ac5fccd45519164294b0eb09697-ao-2" stroke="#2D2D2D" width="95.34563" x="449.35773" y="106.11204"/>
  <rect fill="#FFEBA2" height="19.06913" id="d56d8ac5fccd45519164294b0eb09697-ao-3" stroke="#2D2D2D" width="76.27651" x="394.05726" y="72.74107"/>
  <rect fill="#FFEBA2" height="22.88295" id="d56d8ac5fccd45519164294b0eb09697-ao-4" stroke="#2D2D2D" width="88.67144" x="82.27704" y="288.2222"/>
  <rect fill="#FFEBA2" height="25.74332" id="d56d8ac5fccd45519164294b0eb09697-ao-5" stroke="#2D2D2D" width="141.11154" x="40.32496" y="375.94019"/>
  <rect fill="#FFEBA2" height="22.88295" id="d56d8ac5fccd45519164294b0eb09697-ao-6" stroke="#2D2D2D" width="98.206" x="68.92865" y="531.35357"/>
  <rect fill="#FFEBA2" height="24.78986" id="d56d8ac5fccd45519164294b0eb09697-ao-7" stroke="#2D2D2D" width="148.73919" x="21.25584" y="505.61025"/>
  <rect fill="#FFEBA2" height="21.9295" id="d56d8ac5fccd45519164294b0eb09697-ao-8" stroke="#2D2D2D" width="144.92536" x="23.16275" y="484.63421"/>
  <rect fill="#FFEBA2" height="32.41752" id="d56d8ac5fccd45519164294b0eb09697-ao-9" stroke="#2D2D2D" width="121.08895" x="508.47202" y="309.19824"/>
  <rect fill="#FFEBA2" height="20.97604" id="d56d8ac5fccd45519164294b0eb09697-ao-10" stroke="#2D2D2D" width="143.97191" x="503.70474" y="350.19686"/>
  <rect fill="#FFEBA2" height="20.97604" id="d56d8ac5fccd45519164294b0eb09697-ao-11" stroke="#2D2D2D" width="102.97328" x="514.19276" y="397.86968"/>
  <rect fill="#FFEBA2" height="20.97604" id="d56d8ac5fccd45519164294b0eb09697-ao-12" stroke="#2D2D2D" width="99.15946" x="363.54666" y="42.23047"/>
  <rect fill="#FFEBA2" height="20.02258" id="d56d8ac5fccd45519164294b0eb09697-ao-13" stroke="#2D2D2D" width="154.45993" x="505.61165" y="373.07982"/>
  <rect fill="#FFEBA2" height="37.1848" id="d56d8ac5fccd45519164294b0eb09697-ao-14" stroke="#2D2D2D" width="136.34425" x="30.7904" y="585.70058"/>
  <rect fill="#FFEBA2" height="33.37097" id="d56d8ac5fccd45519164294b0eb09697-ao-15" stroke="#2D2D2D" width="146.83227" x="513.2393" y="470.33236"/>
  <rect fill="#FFEBA2" height="18.11567" id="d56d8ac5fccd45519164294b0eb09697-ao-16" stroke="#2D2D2D" width="142.06499" x="513.2393" y="423.613"/>
  <rect fill="#FFEBA2" height="28.60369" id="d56d8ac5fccd45519164294b0eb09697-ao-17" stroke="#2D2D2D" width="134.43734" x="515.14622" y="551.37615"/>
 </g>
</svg>