<svg xmlns="http://www.w3.org/2000/svg" width="785.0000000000001" height="538">
 <!-- Created with Image Occlusion Enhanced -->
 <g>
  <title>Labels</title>
 </g>
 <g>
  <title>Masks</title>
  <rect id="05485f8cf1d546e9aa6b4a825db1dd27-ao-1" height="23.48993" width="156.37584" y="2.26846" x="31.10736" stroke="#2D2D2D" fill="#FFEBA2"/>
  <rect id="05485f8cf1d546e9aa6b4a825db1dd27-ao-2" height="17.44966" width="148.32215" y="27.10067" x="27.75165" stroke="#2D2D2D" fill="#FFEBA2"/>
  <rect id="05485f8cf1d546e9aa6b4a825db1dd27-ao-3" height="29.5302" width="108.05369" y="55.95974" x="30.43621" stroke="#2D2D2D" fill="#FFEBA2"/>
  <rect id="05485f8cf1d546e9aa6b4a825db1dd27-ao-4" height="22.81879" width="150.33557" y="108.30873" x="29.09393" stroke="#2D2D2D" fill="#FFEBA2"/>
  <rect id="05485f8cf1d546e9aa6b4a825db1dd27-ao-5" height="13.42282" width="146.30873" y="136.49665" x="32.44964" stroke="#2D2D2D" fill="#FFEBA2"/>
  <rect id="05485f8cf1d546e9aa6b4a825db1dd27-ao-6" height="14.7651" width="164.42953" y="156.63088" x="34.46306" stroke="#2D2D2D" fill="#FFEBA2"/>
  <rect id="05485f8cf1d546e9aa6b4a825db1dd27-ao-7" height="16.10738" width="140.9396" y="176.09396" x="33.79192" stroke="#2D2D2D" fill="#FFEBA2"/>
  <rect id="05485f8cf1d546e9aa6b4a825db1dd27-ao-8" height="17.44966" width="79.86577" y="195.55705" x="33.12078" stroke="#2D2D2D" fill="#FFEBA2"/>
  <rect id="05485f8cf1d546e9aa6b4a825db1dd27-ao-9" height="14.7651" width="153.69128" y="218.37584" x="37.14762" stroke="#2D2D2D" fill="#FFEBA2"/>
  <rect id="05485f8cf1d546e9aa6b4a825db1dd27-ao-10" height="16.77852" width="138.25503" y="237.83893" x="36.47648" stroke="#2D2D2D" fill="#FFEBA2"/>
  <rect id="05485f8cf1d546e9aa6b4a825db1dd27-ao-11" height="18.79195" width="89.93289" y="255.95974" x="33.79192" stroke="#2D2D2D" fill="#FFEBA2"/>
  <rect id="05485f8cf1d546e9aa6b4a825db1dd27-ao-12" height="16.10738" width="85.90604" y="277.43625" x="33.12078" stroke="#2D2D2D" fill="#FFEBA2"/>
  <rect id="05485f8cf1d546e9aa6b4a825db1dd27-ao-13" height="20.80537" width="161.74497" y="299.5839" x="35.1342" stroke="#2D2D2D" fill="#FFEBA2"/>
  <rect id="05485f8cf1d546e9aa6b4a825db1dd27-ao-14" height="14.09396" width="44.2953" y="322.40269" x="33.79192" stroke="#2D2D2D" fill="#FFEBA2"/>
  <rect id="05485f8cf1d546e9aa6b4a825db1dd27-ao-15" height="18.12081" width="97.31544" y="340.5235" x="35.80534" stroke="#2D2D2D" fill="#FFEBA2"/>
  
 </g>
</svg>