<svg xmlns="http://www.w3.org/2000/svg" width="807" height="621">
 <!-- Created with Image Occlusion Enhanced -->
 <g>
  <title>Labels</title>
 </g>
 <g>
  <title>Masks</title>
  <rect id="15e9cc490c8c4110b40124735bc4b82e-ao-1" height="58.13953" width="75.1938" y="70.47284" x="11.60463" stroke="#2D2D2D" fill="#FFEBA2"/>
  <rect id="15e9cc490c8c4110b40124735bc4b82e-ao-2" height="38.75969" width="106.20155" y="140.24028" x="12.37982" stroke="#2D2D2D" fill="#FFEBA2"/>
  <rect id="15e9cc490c8c4110b40124735bc4b82e-ao-3" height="31.78294" width="74.4186" y="196.82943" x="15.4806" stroke="#2D2D2D" fill="#FFEBA2"/>
  <rect id="15e9cc490c8c4110b40124735bc4b82e-ao-4" height="31.78294" width="158.91472" y="471.24803" x="61.21703" stroke="#2D2D2D" fill="#FF7E7E" class="qshape"/>
  <rect id="15e9cc490c8c4110b40124735bc4b82e-ao-5" height="24.03101" width="112.4031" y="390.62787" x="214.7054" stroke="#2D2D2D" fill="#FFEBA2"/>
  <rect id="15e9cc490c8c4110b40124735bc4b82e-ao-6" height="46.51163" width="60.46511" y="375.89919" x="355.79066" stroke="#2D2D2D" fill="#FFEBA2"/>
  <rect id="15e9cc490c8c4110b40124735bc4b82e-ao-7" height="31.78294" width="69.76744" y="427.83717" x="358.11625" stroke="#2D2D2D" fill="#FFEBA2"/>
  <rect id="15e9cc490c8c4110b40124735bc4b82e-ao-8" height="42.63566" width="106.97674" y="527.06198" x="683.69763" stroke="#2D2D2D" fill="#FFEBA2"/>
  <rect id="15e9cc490c8c4110b40124735bc4b82e-ao-9" height="32.55814" width="108.52713" y="572.79841" x="686.02321" stroke="#2D2D2D" fill="#FFEBA2"/>
  <rect id="15e9cc490c8c4110b40124735bc4b82e-ao-10" height="41.08527" width="81.39535" y="348.76741" x="720.90693" stroke="#2D2D2D" fill="#FFEBA2"/>
  <rect id="15e9cc490c8c4110b40124735bc4b82e-ao-11" height="27.13178" width="150.38759" y="149.54261" x="341.06198" stroke="#2D2D2D" fill="#FFEBA2"/>
  <rect id="15e9cc490c8c4110b40124735bc4b82e-ao-12" height="27.90698" width="134.10852" y="186.75191" x="389.89919" stroke="#2D2D2D" fill="#FFEBA2"/>
  <rect id="15e9cc490c8c4110b40124735bc4b82e-ao-13" height="34.10853" width="270.54263" y="34.03874" x="313.15501" stroke="#2D2D2D" fill="#FFEBA2"/>
  <rect id="15e9cc490c8c4110b40124735bc4b82e-ao-14" height="24.8062" width="258.91472" y="78.22478" x="317.80617" stroke="#2D2D2D" fill="#FFEBA2"/>
  <rect id="15e9cc490c8c4110b40124735bc4b82e-ao-15" height="21.70543" width="139.53488" y="118.53486" x="317.80617" stroke="#2D2D2D" fill="#FFEBA2"/>
  <rect id="15e9cc490c8c4110b40124735bc4b82e-ao-16" height="27.13178" width="128.68217" y="264.27129" x="618.58136" stroke="#2D2D2D" fill="#FFEBA2"/>
  <rect id="15e9cc490c8c4110b40124735bc4b82e-ao-17" height="22.48062" width="141.08527" y="294.50385" x="634.08523" stroke="#2D2D2D" fill="#FFEBA2"/>
  <rect id="15e9cc490c8c4110b40124735bc4b82e-ao-18" height="21.70543" width="100" y="321.63563" x="651.13949" stroke="#2D2D2D" fill="#FFEBA2"/>
 </g>
</svg>