<svg xmlns="http://www.w3.org/2000/svg" width="610" height="934">
 <!-- Created with Image Occlusion Enhanced -->
 <g>
  <title>Labels</title>
 </g>
 <g>
  <title>Masks</title>
  <rect id="37c4e32cc3f9449bb588810cf2feb7a0-ao-1" height="23.25582" width="113.95349" y="3.2093" x="249.18604" stroke="#2D2D2D" fill="#FFEBA2"/>
  <rect id="37c4e32cc3f9449bb588810cf2feb7a0-ao-2" height="25.5814" width="150.00001" y="54.37209" x="280.58139" stroke="#2D2D2D" fill="#FFEBA2"/>
  <rect id="37c4e32cc3f9449bb588810cf2feb7a0-ao-3" height="18.60465" width="152.32559" y="105.53488" x="308.48837" stroke="#2D2D2D" fill="#FFEBA2"/>
  <rect id="37c4e32cc3f9449bb588810cf2feb7a0-ao-4" height="27.90698" width="141.86047" y="156.69768" x="351.51163" stroke="#2D2D2D" fill="#FFEBA2"/>
  <rect id="37c4e32cc3f9449bb588810cf2feb7a0-ao-5" height="24.41861" width="100" y="206.69768" x="358.48837" stroke="#2D2D2D" fill="#FFEBA2"/>
  <rect id="37c4e32cc3f9449bb588810cf2feb7a0-ao-6" height="19.76744" width="95.34884" y="262.51164" x="358.48837" stroke="#2D2D2D" fill="#FFEBA2"/>
  <rect id="37c4e32cc3f9449bb588810cf2feb7a0-ao-7" height="38.37209" width="166.27908" y="302.04652" x="359.65117" stroke="#2D2D2D" fill="#FFEBA2"/>
  <rect id="37c4e32cc3f9449bb588810cf2feb7a0-ao-8" height="25.5814" width="168.60466" y="360.18606" x="355" stroke="#2D2D2D" fill="#FFEBA2"/>
  <rect id="37c4e32cc3f9449bb588810cf2feb7a0-ao-9" height="40.69768" width="166.27908" y="406.69769" x="351.51163" stroke="#2D2D2D" fill="#FFEBA2"/>
  <rect id="37c4e32cc3f9449bb588810cf2feb7a0-ao-10" height="45.34884" width="191.86047" y="479.95351" x="336.39535" stroke="#2D2D2D" fill="#FFEBA2"/>
  <rect id="37c4e32cc3f9449bb588810cf2feb7a0-ao-11" height="53.48837" width="231.39536" y="541.58142" x="295.69767" stroke="#2D2D2D" fill="#FFEBA2"/>
  <rect id="37c4e32cc3f9449bb588810cf2feb7a0-ao-12" height="40.69768" width="145.34884" y="618.32561" x="316.62791" stroke="#2D2D2D" fill="#FFEBA2"/>
  <rect id="37c4e32cc3f9449bb588810cf2feb7a0-ao-13" height="38.37209" width="153.48838" y="678.79072" x="328.25582" stroke="#2D2D2D" fill="#FFEBA2"/>
  <rect id="37c4e32cc3f9449bb588810cf2feb7a0-ao-14" height="24.41861" width="167.44187" y="732.2791" x="328.25582" stroke="#2D2D2D" fill="#FFEBA2"/>
  <rect id="37c4e32cc3f9449bb588810cf2feb7a0-ao-15" height="27.90698" width="131.39535" y="779.95352" x="328.25582" stroke="#2D2D2D" fill="#FFEBA2"/>
  <rect id="37c4e32cc3f9449bb588810cf2feb7a0-ao-16" height="24.41861" width="98.83721" y="831.11631" x="325.93023" stroke="#2D2D2D" fill="#FFEBA2"/>
  
  <rect id="37c4e32cc3f9449bb588810cf2feb7a0-ao-18" height="23.25582" width="84.88372" y="833.44189" x="486.39536" stroke="#2D2D2D" fill="#FFEBA2"/>
 </g>
</svg>