<svg xmlns="http://www.w3.org/2000/svg" width="833" height="671">
 <!-- Created with Image Occlusion Enhanced -->
 <g>
  <title>Labels</title>
 </g>
 <g>
  <title>Masks</title>
  <rect id="3f910b0edc044b989386bb69f83f7e37-ao-1" height="27.73109" width="50.42017" y="11.35295" x="569.52099" stroke="#2D2D2D" fill="#FFEBA2"/>
  <rect id="3f910b0edc044b989386bb69f83f7e37-ao-2" height="15.96639" width="63.02521" y="47.4874" x="569.52099" stroke="#2D2D2D" fill="#FFEBA2"/>
  <rect id="3f910b0edc044b989386bb69f83f7e37-ao-3" height="18.4874" width="48.7395" y="67.65547" x="571.20166" stroke="#2D2D2D" fill="#FFEBA2"/>
  <rect id="3f910b0edc044b989386bb69f83f7e37-ao-4" height="30.2521" width="226.89076" y="106.31093" x="554.39494" stroke="#2D2D2D" fill="#FFEBA2"/>
  <rect id="3f910b0edc044b989386bb69f83f7e37-ao-5" height="19.32773" width="155.46219" y="138.24371" x="557.75628" stroke="#2D2D2D" fill="#FFEBA2"/>
  <rect id="3f910b0edc044b989386bb69f83f7e37-ao-6" height="19.32773" width="204.20168" y="163.45379" x="554.39494" stroke="#2D2D2D" fill="#FFEBA2"/>
  <rect id="3f910b0edc044b989386bb69f83f7e37-ao-7" height="19.32773" width="149.57983" y="186.9832" x="557.75628" stroke="#2D2D2D" fill="#FFEBA2"/>
  <rect id="3f910b0edc044b989386bb69f83f7e37-ao-8" height="16.80672" width="93.27731" y="213.87396" x="556.07561" stroke="#2D2D2D" fill="#FFEBA2"/>
  <rect id="3f910b0edc044b989386bb69f83f7e37-ao-9" height="16.80672" width="141.17647" y="235.7227" x="557.75628" stroke="#2D2D2D" fill="#FFEBA2"/>
  <rect id="3f910b0edc044b989386bb69f83f7e37-ao-10" height="19.32773" width="116.80672" y="260.93278" x="556.07561" stroke="#2D2D2D" fill="#FFEBA2"/>
  <rect id="3f910b0edc044b989386bb69f83f7e37-ao-11" height="22.68908" width="133.61345" y="285.30253" x="550.19325" stroke="#2D2D2D" fill="#FFEBA2"/>
  <rect id="3f910b0edc044b989386bb69f83f7e37-ao-12" height="20.16807" width="142.01681" y="311.35295" x="556.91594" stroke="#2D2D2D" fill="#FFEBA2"/>
  <rect id="3f910b0edc044b989386bb69f83f7e37-ao-13" height="21.84874" width="72.26891" y="334.04203" x="559.43695" stroke="#2D2D2D" fill="#FFEBA2"/>
  <rect id="3f910b0edc044b989386bb69f83f7e37-ao-14" height="17.64706" width="147.05883" y="359.25211" x="560.27729" stroke="#2D2D2D" fill="#FFEBA2"/>
  <rect id="3f910b0edc044b989386bb69f83f7e37-ao-15" height="16.80672" width="182.35294" y="385.30253" x="555.23527" stroke="#2D2D2D" fill="#FFEBA2"/>
  <rect id="3f910b0edc044b989386bb69f83f7e37-ao-16" height="17.64706" width="179.83193" y="408.83195" x="557.75628" stroke="#2D2D2D" fill="#FFEBA2"/>
  <rect id="3f910b0edc044b989386bb69f83f7e37-ao-17" height="20.16807" width="206.72269" y="432.36136" x="554.39494" stroke="#2D2D2D" fill="#FFEBA2"/>
  <rect id="3f910b0edc044b989386bb69f83f7e37-ao-18" height="18.4874" width="145.37815" y="455.89077" x="555.23527" stroke="#2D2D2D" fill="#FFEBA2"/>
  <rect id="3f910b0edc044b989386bb69f83f7e37-ao-19" height="21.84874" width="193.27731" y="481.10085" x="557.75628" stroke="#2D2D2D" fill="#FFEBA2"/>
  <rect id="3f910b0edc044b989386bb69f83f7e37-ao-20" height="16.80672" width="221.00841" y="506.31094" x="556.91594" stroke="#2D2D2D" fill="#FFEBA2"/>
  <rect id="3f910b0edc044b989386bb69f83f7e37-ao-21" height="17.64706" width="121.84874" y="529.00001" x="557.75628" stroke="#2D2D2D" fill="#FFEBA2"/>
  <rect id="3f910b0edc044b989386bb69f83f7e37-ao-22" height="16.80672" width="126.89076" y="553.36976" x="556.07561" stroke="#2D2D2D" fill="#FFEBA2"/>
  <rect id="3f910b0edc044b989386bb69f83f7e37-ao-23" height="19.32773" width="93.27731" y="580.26052" x="556.91594" stroke="#2D2D2D" fill="#FFEBA2"/>
  <rect id="3f910b0edc044b989386bb69f83f7e37-ao-24" height="16.80672" width="107.56303" y="603.78993" x="556.07561" stroke="#2D2D2D" fill="#FF7E7E" class="qshape"/>
  <rect id="3f910b0edc044b989386bb69f83f7e37-ao-25" height="18.4874" width="99.15967" y="628.15968" x="559.43695" stroke="#2D2D2D" fill="#FFEBA2"/>
 </g>
</svg>