<svg xmlns="http://www.w3.org/2000/svg" width="2070" height="1731">
 <!-- Created with Image Occlusion Enhanced -->
 <g>
  <title>Labels</title>
 </g>
 <g>
  <title>Masks</title>
  <g id="41b6963c679f4958b134a8311817c7b8-ao-1">
   <rect fill="#00AA7F" stroke="#2D2D2D" x="266.11902" y="761.85708" width="47.61905" height="40.47619"/>
   <rect fill="#00AA7F" stroke="#2D2D2D" x="28.02378" y="1642.80944" width="323.80952" height="50"/>
   <rect fill="#00AA7F" stroke="#2D2D2D" x="463.73806" y="1642.80944" width="347.61904" height="42.85714"/>
   <rect fill="#00AA7F" stroke="#2D2D2D" x="668.49996" y="702.33327" width="52.38095" height="38.09524"/>
  </g>
  <g id="41b6963c679f4958b134a8311817c7b8-ao-2">
   <rect fill="#00AA7F" stroke="#2D2D2D" x="158.97616" y="768.99993" width="33.33333" height="38.09524"/>
   <rect fill="#00AA7F" stroke="#2D2D2D" x="32.78569" y="1604.7142" width="288.09523" height="35.71428"/>
   <rect fill="#00AA7F" stroke="#2D2D2D" x="473.26187" y="1599.9523" width="290.47618" height="42.85714"/>
   <rect fill="#00AA7F" stroke="#2D2D2D" x="837.54757" y="757.09517" width="42.85714" height="40.47619"/>
  </g>
  <g id="41b6963c679f4958b134a8311817c7b8-ao-3">
   <rect fill="#00AA7F" stroke="#2D2D2D" x="149.45235" y="718.99993" width="30.95238" height="33.33333"/>
   <rect fill="#00AA7F" stroke="#2D2D2D" x="42.3095" y="1557.09515" width="292.85714" height="40.47619"/>
   <rect fill="#00AA7F" stroke="#2D2D2D" x="473.26187" y="1554.7142" width="319.04761" height="42.85714"/>
   <rect fill="#00AA7F" stroke="#2D2D2D" x="863.73805" y="702.33327" width="35.71428" height="45.23809"/>
  </g>
  <g id="41b6963c679f4958b134a8311817c7b8-ao-4">
   <rect fill="#00AA7F" stroke="#2D2D2D" x="325.64282" y="709.47612" width="30.95238" height="42.85714"/>
   <rect fill="#00AA7F" stroke="#2D2D2D" x="32.78569" y="1507.09515" width="433.33332" height="50"/>
   <rect fill="#00AA7F" stroke="#2D2D2D" x="478.02377" y="1514.23801" width="442.85713" height="40.47619"/>
   <rect fill="#00AA7F" stroke="#2D2D2D" x="739.92853" y="745.19041" width="38.09524" height="50"/>
  </g>
  <g id="41b6963c679f4958b134a8311817c7b8-ao-5">
   <rect fill="#00AA7F" stroke="#2D2D2D" x="382.78568" y="571.38089" width="40.47619" height="59.52381"/>
   <rect fill="#00AA7F" stroke="#2D2D2D" x="23.26188" y="1457.09516" width="352.38094" height="47.61905"/>
   <rect fill="#00AA7F" stroke="#2D2D2D" x="480.40473" y="1466.61896" width="349.99999" height="42.85714"/>
   <rect fill="#00AA7F" stroke="#2D2D2D" x="616.11901" y="576.14279" width="35.71428" height="40.47619"/>
  </g>
  <g id="41b6963c679f4958b134a8311817c7b8-ao-6">
   <rect fill="#00AA7F" stroke="#2D2D2D" x="80.40473" y="576.14279" width="45.23809" height="40.47619"/>
   <rect fill="#00AA7F" stroke="#2D2D2D" x="37.54759" y="1302.33325" width="183.33333" height="45.23809"/>
  </g>
  <g id="41b6963c679f4958b134a8311817c7b8-ao-7">
   <rect fill="#00AA7F" stroke="#2D2D2D" x="111.35711" y="680.9047" width="40.47619" height="33.33333"/>
   <rect fill="#00AA7F" stroke="#2D2D2D" x="37.54759" y="1347.57135" width="183.33333" height="47.61905"/>
  </g>
  <g id="41b6963c679f4958b134a8311817c7b8-ao-8">
   <rect fill="#00AA7F" stroke="#2D2D2D" x="468.49996" y="1314.23802" width="371.42856" height="38.09524"/>
   <rect fill="#00AA7F" stroke="#2D2D2D" x="894.69043" y="528.52375" width="35.71428" height="35.71428"/>
  </g>
  
  <g id="41b6963c679f4958b134a8311817c7b8-ao-12">
   <rect fill="#00AA7F" stroke="#2D2D2D" x="208.97616" y="228.52375" width="42.85714" height="47.61905"/>
   <rect fill="#00AA7F" stroke="#2D2D2D" x="39.92854" y="1099.95231" width="176.19047" height="50"/>
  </g>
  <g id="41b6963c679f4958b134a8311817c7b8-ao-13">
   <rect fill="#00AA7F" stroke="#2D2D2D" x="116.11902" y="299.95232" width="52.38095" height="45.23809"/>
   <rect fill="#00AA7F" stroke="#2D2D2D" x="32.78569" y="1149.95231" width="226.19047" height="47.61905"/>
  </g>
  <g id="41b6963c679f4958b134a8311817c7b8-ao-10">
   <g>
    <rect fill="#00AA7F" stroke="#2D2D2D" x="818.49996" y="233.28566" width="38.09524" height="38.09524"/>
    <rect fill="#00AA7F" stroke="#2D2D2D" x="894.69043" y="302.33328" width="35.71428" height="45.23809"/>
    <rect fill="#00AA7F" stroke="#2D2D2D" x="478.02377" y="1111.85707" width="323.80952" height="78.57143"/>
   </g>
   <rect height="47.61905" width="235.71428" y="235.66661" x="573.26187" stroke="#2D2D2D" fill="#00AA7F"/>
  </g>
  <g id="41b6963c679f4958b134a8311817c7b8-ao-11">
   <g>
    <rect fill="#00AA7F" stroke="#2D2D2D" x="901.83329" y="399.95232" width="30.95238" height="38.09524"/>
    <rect fill="#00AA7F" stroke="#2D2D2D" x="482.78568" y="1197.57135" width="214.28571" height="40.47619"/>
   </g>
   <g>
    <rect fill="#00AA7F" stroke="#2D2D2D" x="128.02378" y="371.38089" width="50" height="42.85714"/>
    <rect fill="#00AA7F" stroke="#2D2D2D" x="37.54759" y="1199.9523" width="214.28571" height="33.33333"/>
   </g>
  </g>
 </g>
</svg>