<svg xmlns="http://www.w3.org/2000/svg" width="800" height="497">
 <!-- Created with Image Occlusion Enhanced -->
 <g>
  <title>Labels</title>
 </g>
 <g>
  <title>Masks</title>
  <rect id="7344bf10c13e4e57b7c123c2607d95cf-ao-1" height="29.81367" width="85.09317" y="58.27951" x="144.09937" stroke="#2D2D2D" fill="#FFEBA2"/>
  <rect id="7344bf10c13e4e57b7c123c2607d95cf-ao-2" height="45.34162" width="93.1677" y="88.7143" x="81.98757" stroke="#2D2D2D" fill="#FF7E7E" class="qshape"/>
  <rect id="7344bf10c13e4e57b7c123c2607d95cf-ao-3" height="20.49689" width="67.08075" y="91.81989" x="191.30434" stroke="#2D2D2D" fill="#FFEBA2"/>
  <rect id="7344bf10c13e4e57b7c123c2607d95cf-ao-4" height="9.31677" width="64.59627" y="115.42237" x="196.27329" stroke="#2D2D2D" fill="#FFEBA2"/>
  <rect id="7344bf10c13e4e57b7c123c2607d95cf-ao-5" height="19.87578" width="165.83851" y="141.50933" x="108.07453" stroke="#2D2D2D" fill="#FFEBA2"/>
  <rect id="7344bf10c13e4e57b7c123c2607d95cf-ao-6" height="41.61491" width="164.59628" y="170.08076" x="103.7267" stroke="#2D2D2D" fill="#FFEBA2"/>
  <rect id="7344bf10c13e4e57b7c123c2607d95cf-ao-7" height="40.99379" width="183.22982" y="246.47828" x="66.45962" stroke="#2D2D2D" fill="#FFEBA2"/>
  <rect id="7344bf10c13e4e57b7c123c2607d95cf-ao-8" height="39.75155" width="92.54659" y="296.16772" x="150.93167" stroke="#2D2D2D" fill="#FFEBA2"/>
  <rect id="7344bf10c13e4e57b7c123c2607d95cf-ao-9" height="18.01242" width="91.92547" y="343.37269" x="134.16149" stroke="#2D2D2D" fill="#FFEBA2"/>
  <rect id="7344bf10c13e4e57b7c123c2607d95cf-ao-10" height="18.01242" width="139.13044" y="373.80747" x="72.04968" stroke="#2D2D2D" fill="#FFEBA2"/>
  <rect id="7344bf10c13e4e57b7c123c2607d95cf-ao-11" height="20.49689" width="83.22982" y="404.24226" x="118.63353" stroke="#2D2D2D" fill="#FFEBA2"/>
  <rect id="7344bf10c13e4e57b7c123c2607d95cf-ao-12" height="29.81367" width="111.18013" y="373.18635" x="577.01864" stroke="#2D2D2D" fill="#FFEBA2"/>
  <rect id="7344bf10c13e4e57b7c123c2607d95cf-ao-13" height="23.60248" width="123.60249" y="318.52797" x="578.88199" stroke="#2D2D2D" fill="#FFEBA2"/>
  <rect id="7344bf10c13e4e57b7c123c2607d95cf-ao-14" height="24.2236" width="171.42858" y="200.51554" x="601.24224" stroke="#2D2D2D" fill="#FFEBA2"/>
  <rect id="7344bf10c13e4e57b7c123c2607d95cf-ao-15" height="19.25466" width="56.52174" y="148.34163" x="604.96895" stroke="#2D2D2D" fill="#FFEBA2"/>
  <rect id="7344bf10c13e4e57b7c123c2607d95cf-ao-16" height="26.70808" width="168.32298" y="84.36647" x="609.31677" stroke="#2D2D2D" fill="#FFEBA2"/>
  <rect id="7344bf10c13e4e57b7c123c2607d95cf-ao-17" height="24.2236" width="147.82609" y="30.3292" x="609.31677" stroke="#2D2D2D" fill="#FFEBA2"/>
 </g>
</svg>