<svg xmlns="http://www.w3.org/2000/svg" width="849" height="997">
 <!-- Created with Image Occlusion Enhanced -->
 <g>
  <title>Labels</title>
 </g>
 <g>
  <title>Masks</title>
  <rect id="828f912e548a4e3988342312eb6a9570-ao-1" height="37.5" width="283.75001" y="30.50003" x="466.99996" stroke="#2D2D2D" fill="#FFEBA2"/>
  <rect id="828f912e548a4e3988342312eb6a9570-ao-2" height="21.25" width="372.50001" y="71.75003" x="469.49996" stroke="#2D2D2D" fill="#FFEBA2"/>
  <rect id="828f912e548a4e3988342312eb6a9570-ao-3" height="23.75" width="145" y="101.75003" x="470.74996" stroke="#2D2D2D" fill="#FFEBA2"/>
  <rect id="828f912e548a4e3988342312eb6a9570-ao-4" height="32.5" width="287.50001" y="138.00003" x="470.74996" stroke="#2D2D2D" fill="#FFEBA2"/>
  <rect id="828f912e548a4e3988342312eb6a9570-ao-5" height="42.5" width="315.00001" y="190.50004" x="468.24996" stroke="#2D2D2D" fill="#FFEBA2"/>
  <rect id="828f912e548a4e3988342312eb6a9570-ao-6" height="28.75" width="361.25001" y="261.75004" x="473.24996" stroke="#2D2D2D" fill="#FFEBA2"/>
  <rect id="828f912e548a4e3988342312eb6a9570-ao-7" height="27.5" width="176.25001" y="299.25004" x="475.74996" stroke="#2D2D2D" fill="#FFEBA2"/>
  <rect id="828f912e548a4e3988342312eb6a9570-ao-8" height="35" width="236.25001" y="334.25004" x="471.99996" stroke="#2D2D2D" fill="#FFEBA2"/>
  <rect id="828f912e548a4e3988342312eb6a9570-ao-9" height="36.25" width="256.25001" y="395.50004" x="470.74996" stroke="#2D2D2D" fill="#FFEBA2"/>
  <rect id="828f912e548a4e3988342312eb6a9570-ao-10" height="23.75" width="181.25001" y="466.75004" x="465.74996" stroke="#2D2D2D" fill="#FFEBA2"/>
  <rect id="828f912e548a4e3988342312eb6a9570-ao-11" height="50" width="246.25001" y="501.75005" x="469.49996" stroke="#2D2D2D" fill="#FFEBA2"/>
  <rect id="828f912e548a4e3988342312eb6a9570-ao-12" height="31.25" width="262.50001" y="563.00005" x="466.99996" stroke="#2D2D2D" fill="#FF7E7E" class="qshape"/>
  <rect id="828f912e548a4e3988342312eb6a9570-ao-13" height="21.25" width="120" y="600.50005" x="470.74996" stroke="#2D2D2D" fill="#FFEBA2"/>
  <rect id="828f912e548a4e3988342312eb6a9570-ao-14" height="26.25" width="215.00001" y="626.75005" x="476.99996" stroke="#2D2D2D" fill="#FFEBA2"/>
  <rect id="828f912e548a4e3988342312eb6a9570-ao-15" height="26.25" width="255.00001" y="664.25005" x="475.74996" stroke="#2D2D2D" fill="#FFEBA2"/>
  <rect id="828f912e548a4e3988342312eb6a9570-ao-16" height="27.5" width="240.00001" y="694.25005" x="475.74996" stroke="#2D2D2D" fill="#FFEBA2"/>
  <rect id="828f912e548a4e3988342312eb6a9570-ao-17" height="58.75" width="265.00001" y="735.50005" x="470.74996" stroke="#2D2D2D" fill="#FFEBA2"/>
  <rect id="828f912e548a4e3988342312eb6a9570-ao-18" height="20" width="233.75001" y="799.25005" x="473.24996" stroke="#2D2D2D" fill="#FFEBA2"/>
  <rect id="828f912e548a4e3988342312eb6a9570-ao-19" height="22.5" width="257.50001" y="829.25006" x="471.99996" stroke="#2D2D2D" fill="#FFEBA2"/>
  <rect id="828f912e548a4e3988342312eb6a9570-ao-20" height="31.25" width="251.25001" y="863.00006" x="474.49996" stroke="#2D2D2D" fill="#FFEBA2"/>
 </g>
</svg>