<svg xmlns="http://www.w3.org/2000/svg" width="762" height="590">
 <!-- Created with Image Occlusion Enhanced -->
 <g>
  <title>Labels</title>
 </g>
 <g>
  <title>Masks</title>
  <rect id="83decd0131b14021b8b192f446647516-ao-1" height="28.14815" width="124.44445" y="70.74073" x="540.22228" stroke="#2D2D2D" fill="#FFEBA2"/>
  <rect id="83decd0131b14021b8b192f446647516-ao-2" height="24.44445" width="122.96297" y="103.33332" x="537.25932" stroke="#2D2D2D" fill="#FFEBA2"/>
  <rect id="83decd0131b14021b8b192f446647516-ao-3" height="21.48148" width="120.00001" y="138.14814" x="529.85191" stroke="#2D2D2D" fill="#FFEBA2"/>
  <rect id="83decd0131b14021b8b192f446647516-ao-4" height="16.2963" width="146.66667" y="199.62963" x="537.25932" stroke="#2D2D2D" fill="#FFEBA2"/>
  <rect id="83decd0131b14021b8b192f446647516-ao-5" height="17.77778" width="137.77778" y="218.88889" x="540.22228" stroke="#2D2D2D" fill="#FF7E7E" class="qshape"/>
  <rect id="83decd0131b14021b8b192f446647516-ao-6" height="25.92593" width="112.5926" y="244.07407" x="543.18525" stroke="#2D2D2D" fill="#FFEBA2"/>
  <rect id="83decd0131b14021b8b192f446647516-ao-7" height="28.14815" width="146.66667" y="291.48148" x="551.3334" stroke="#2D2D2D" fill="#FFEBA2"/>
  <rect id="83decd0131b14021b8b192f446647516-ao-8" height="19.25926" width="122.96297" y="325.55556" x="555.0371" stroke="#2D2D2D" fill="#FFEBA2"/>
  <rect id="83decd0131b14021b8b192f446647516-ao-9" height="16.2963" width="155.55556" y="344.81482" x="519.48154" stroke="#2D2D2D" fill="#FFEBA2"/>
  <rect id="83decd0131b14021b8b192f446647516-ao-10" height="23.7037" width="125.92593" y="361.11111" x="553.55562" stroke="#2D2D2D" fill="#FFEBA2"/>
  <rect id="83decd0131b14021b8b192f446647516-ao-11" height="13.33333" width="66.66667" y="390.74075" x="550.59265" stroke="#2D2D2D" fill="#FFEBA2"/>
  <rect id="83decd0131b14021b8b192f446647516-ao-12" height="20.74074" width="65.92593" y="406.2963" x="569.85192" stroke="#2D2D2D" fill="#FFEBA2"/>
  <rect id="83decd0131b14021b8b192f446647516-ao-13" height="21.48148" width="131.11112" y="431.48149" x="565.40747" stroke="#2D2D2D" fill="#FFEBA2"/>
  <rect id="83decd0131b14021b8b192f446647516-ao-14" height="22.22222" width="46.66667" y="467.77779" x="526.14821" stroke="#2D2D2D" fill="#FFEBA2"/>
  <rect id="83decd0131b14021b8b192f446647516-ao-15" height="21.48148" width="104.44445" y="493.70371" x="518.7408" stroke="#2D2D2D" fill="#FFEBA2"/>
  <rect id="83decd0131b14021b8b192f446647516-ao-16" height="23.7037" width="100" y="521.85186" x="520.96302" stroke="#2D2D2D" fill="#FFEBA2"/>
  <rect id="83decd0131b14021b8b192f446647516-ao-17" height="28.14815" width="101.48149" y="553.70372" x="515.77784" stroke="#2D2D2D" fill="#FFEBA2"/>
  <rect id="83decd0131b14021b8b192f446647516-ao-18" height="20" width="74.81482" y="578.14816" x="307.62968" stroke="#2D2D2D" fill="#FFEBA2"/>
  <rect id="83decd0131b14021b8b192f446647516-ao-19" height="19.25926" width="95.55556" y="555.1852" x="269.11116" stroke="#2D2D2D" fill="#FFEBA2"/>
  <rect id="83decd0131b14021b8b192f446647516-ao-20" height="14.07407" width="94.81482" y="539.62964" x="270.59264" stroke="#2D2D2D" fill="#FFEBA2"/>
  <rect id="83decd0131b14021b8b192f446647516-ao-21" height="17.77778" width="110.37038" y="518.14816" x="252.81486" stroke="#2D2D2D" fill="#FFEBA2"/>
  <rect id="83decd0131b14021b8b192f446647516-ao-22" height="20.74074" width="294.81483" y="494.44445" x="67.62967" stroke="#2D2D2D" fill="#FFEBA2"/>
  <rect id="83decd0131b14021b8b192f446647516-ao-23" height="15.55556" width="94.07408" y="475.92593" x="267.62968" stroke="#2D2D2D" fill="#FFEBA2"/>
  <rect id="83decd0131b14021b8b192f446647516-ao-24" height="20.74074" width="74.81482" y="431.48149" x="271.33338" stroke="#2D2D2D" fill="#FFEBA2"/>
  <rect id="83decd0131b14021b8b192f446647516-ao-25" height="20.74074" width="268.8889" y="410.00001" x="75.03708" stroke="#2D2D2D" fill="#FFEBA2"/>
  <rect id="83decd0131b14021b8b192f446647516-ao-26" height="25.18519" width="204.44445" y="369.25926" x="125.40745" stroke="#2D2D2D" fill="#FFEBA2"/>
  <rect id="83decd0131b14021b8b192f446647516-ao-27" height="22.96296" width="40.74074" y="341.85185" x="283.18523" stroke="#2D2D2D" fill="#FFEBA2"/>
  <rect id="83decd0131b14021b8b192f446647516-ao-28" height="20.74074" width="34.07408" y="312.22222" x="290.59264" stroke="#2D2D2D" fill="#FFEBA2"/>
  <rect id="83decd0131b14021b8b192f446647516-ao-29" height="13.33333" width="45.18519" y="295.92593" x="280.96301" stroke="#2D2D2D" fill="#FFEBA2"/>
  <rect id="83decd0131b14021b8b192f446647516-ao-30" height="14.07407" width="30.37037" y="271.48148" x="291.33338" stroke="#2D2D2D" fill="#FFEBA2"/>
  <rect id="83decd0131b14021b8b192f446647516-ao-31" height="23.7037" width="34.81482" y="245.55555" x="283.92598" stroke="#2D2D2D" fill="#FFEBA2"/>
  <rect id="83decd0131b14021b8b192f446647516-ao-32" height="19.25926" width="40" y="221.85185" x="280.96301" stroke="#2D2D2D" fill="#FFEBA2"/>
  <rect id="83decd0131b14021b8b192f446647516-ao-33" height="14.81482" width="37.03704" y="202.59259" x="284.66672" stroke="#2D2D2D" fill="#FFEBA2"/>
  <rect id="83decd0131b14021b8b192f446647516-ao-34" height="14.07407" width="35.55556" y="181.11111" x="282.44449" stroke="#2D2D2D" fill="#FFEBA2"/>
  <rect id="83decd0131b14021b8b192f446647516-ao-35" height="21.48148" width="37.03704" y="155.92592" x="280.96301" stroke="#2D2D2D" fill="#FFEBA2"/>
 </g>
</svg>