<svg xmlns="http://www.w3.org/2000/svg" width="685" height="709">
 <!-- Created with Image Occlusion Enhanced -->
 <g>
  <title>Labels</title>
 </g>
 <g>
  <title>Masks</title>
  <rect id="8ae09d5c3c7c4b5d89362ad8647bef79-ao-1" height="18.58407" width="123.00885" y="12.23895" x="446.92481" stroke="#2D2D2D" fill="#FFEBA2"/>
  
  <rect id="8ae09d5c3c7c4b5d89362ad8647bef79-ao-3" height="10.61947" width="158.40708" y="50.29205" x="449.57968" stroke="#2D2D2D" fill="#FFEBA2"/>
  <rect id="8ae09d5c3c7c4b5d89362ad8647bef79-ao-4" height="11.50443" width="84.0708" y="65.3363" x="446.92481" stroke="#2D2D2D" fill="#FFEBA2"/>
  <rect id="8ae09d5c3c7c4b5d89362ad8647bef79-ao-5" height="10.61947" width="190.26549" y="82.15046" x="450.46463" stroke="#2D2D2D" fill="#FFEBA2"/>
  <rect id="8ae09d5c3c7c4b5d89362ad8647bef79-ao-6" height="14.15929" width="115.04425" y="97.19471" x="451.34959" stroke="#2D2D2D" fill="#FFEBA2"/>
  <rect id="8ae09d5c3c7c4b5d89362ad8647bef79-ao-7" height="10.61947" width="187.61062" y="114.89382" x="448.69472" stroke="#2D2D2D" fill="#FFEBA2"/>
  <rect id="8ae09d5c3c7c4b5d89362ad8647bef79-ao-8" height="12.38938" width="163.71682" y="129.93807" x="450.46463" stroke="#2D2D2D" fill="#FFEBA2"/>
  <rect id="8ae09d5c3c7c4b5d89362ad8647bef79-ao-9" height="14.15929" width="138.93806" y="144.98232" x="446.92481" stroke="#2D2D2D" fill="#FFEBA2"/>
  <rect id="8ae09d5c3c7c4b5d89362ad8647bef79-ao-10" height="15.9292" width="81.41593" y="162.68143" x="450.46463" stroke="#2D2D2D" fill="#FFEBA2"/>
  <rect id="8ae09d5c3c7c4b5d89362ad8647bef79-ao-11" height="13.27434" width="115.04425" y="179.49559" x="450.46463" stroke="#2D2D2D" fill="#FFEBA2"/>
  <rect id="8ae09d5c3c7c4b5d89362ad8647bef79-ao-12" height="10.61947" width="69.02655" y="197.19471" x="447.80976" stroke="#2D2D2D" fill="#FFEBA2"/>
  <rect id="8ae09d5c3c7c4b5d89362ad8647bef79-ao-13" height="13.27434" width="162.83186" y="222.85843" x="447.80976" stroke="#2D2D2D" fill="#FFEBA2"/>
  <rect id="8ae09d5c3c7c4b5d89362ad8647bef79-ao-14" height="15.04425" width="153.9823" y="240.55754" x="452.23454" stroke="#2D2D2D" fill="#FFEBA2"/>
  <rect id="8ae09d5c3c7c4b5d89362ad8647bef79-ao-15" height="9.73451" width="192.92036" y="260.02657" x="450.46463" stroke="#2D2D2D" fill="#FFEBA2"/>
  <rect id="8ae09d5c3c7c4b5d89362ad8647bef79-ao-16" height="18.58407" width="113.27434" y="270.64604" x="448.69472" stroke="#2D2D2D" fill="#FFEBA2"/>
  <rect id="8ae09d5c3c7c4b5d89362ad8647bef79-ao-17" height="13.27434" width="74.33628" y="291.00002" x="449.57968" stroke="#2D2D2D" fill="#FFEBA2"/>
  <rect id="8ae09d5c3c7c4b5d89362ad8647bef79-ao-18" height="14.15929" width="156.63717" y="307.81418" x="448.69472" stroke="#2D2D2D" fill="#FFEBA2"/>
 </g>
</svg>