<svg xmlns="http://www.w3.org/2000/svg" width="796" height="476">
 <!-- Created with Image Occlusion Enhanced -->
 <g>
  <title>Labels</title>
 </g>
 <g>
  <title>Masks</title>
  <rect id="9ffaf7d9081b4ac2853757822bef76df-ao-1" height="40.47619" width="72.61905" y="-257.54762" x="282.5714" stroke="#2D2D2D" fill="#FFEBA2"/>
  <rect id="9ffaf7d9081b4ac2853757822bef76df-ao-2" height="34.52381" width="143.45238" y="60.90477" x="40.90473" stroke="#2D2D2D" fill="#FFEBA2"/>
  <rect id="9ffaf7d9081b4ac2853757822bef76df-ao-3" height="23.80952" width="166.07143" y="111.50001" x="24.23807" stroke="#2D2D2D" fill="#FFEBA2"/>
  <rect id="9ffaf7d9081b4ac2853757822bef76df-ao-4" height="37.5" width="120.2381" y="161.50001" x="74.23807" stroke="#2D2D2D" fill="#FFEBA2"/>
  <rect id="9ffaf7d9081b4ac2853757822bef76df-ao-5" height="22.61905" width="60.11905" y="215.07143" x="138.52378" stroke="#2D2D2D" fill="#FFEBA2"/>
  <rect id="9ffaf7d9081b4ac2853757822bef76df-ao-6" height="28.57143" width="179.76191" y="266.26191" x="26.02378" stroke="#2D2D2D" fill="#FFEBA2"/>
  <rect id="9ffaf7d9081b4ac2853757822bef76df-ao-7" height="20.2381" width="100" y="319.83334" x="113.52378" stroke="#2D2D2D" fill="#FFEBA2"/>
  <rect id="9ffaf7d9081b4ac2853757822bef76df-ao-8" height="32.14286" width="105.95238" y="355.54763" x="113.52378" stroke="#2D2D2D" fill="#FFEBA2"/>
  <rect id="9ffaf7d9081b4ac2853757822bef76df-ao-9" height="27.97619" width="105.95238" y="403.76191" x="121.85711" stroke="#2D2D2D" fill="#FFEBA2"/>
  <rect id="9ffaf7d9081b4ac2853757822bef76df-ao-10" height="26.78571" width="246.42857" y="100.78572" x="501.61902" stroke="#2D2D2D" fill="#FFEBA2"/>
  <rect id="9ffaf7d9081b4ac2853757822bef76df-ao-11" height="25" width="243.45238" y="140.07143" x="493.88093" stroke="#2D2D2D" fill="#FFEBA2"/>
  <rect id="9ffaf7d9081b4ac2853757822bef76df-ao-12" height="17.2619" width="100.59524" y="302.57144" x="536.14283" stroke="#2D2D2D" fill="#FFEBA2"/>
  <rect id="9ffaf7d9081b4ac2853757822bef76df-ao-13" height="14.88095" width="97.02381" y="334.71429" x="537.92855" stroke="#2D2D2D" fill="#FFEBA2"/>
  <rect id="9ffaf7d9081b4ac2853757822bef76df-ao-14" height="14.28571" width="55.95238" y="351.38096" x="532.5714" stroke="#2D2D2D" fill="#FFEBA2"/>
  <rect id="9ffaf7d9081b4ac2853757822bef76df-ao-15" height="16.07143" width="104.16667" y="366.85715" x="539.11902" stroke="#2D2D2D" fill="#FFEBA2"/>
  <rect id="9ffaf7d9081b4ac2853757822bef76df-ao-16" height="41.66667" width="55.95238" y="335.30953" x="661.14283" stroke="#2D2D2D" fill="#FFEBA2"/>
  <rect id="9ffaf7d9081b4ac2853757822bef76df-ao-17" height="59.52381" width="183.92857" y="194.83334" x="524.83331" stroke="#2D2D2D" fill="#FFEBA2"/>
  
  <rect id="9ffaf7d9081b4ac2853757822bef76df-ao-19" height="23.21429" width="142.26191" y="385.30953" x="530.19045" stroke="#2D2D2D" fill="#FFEBA2"/>
 </g>
</svg>