<svg xmlns="http://www.w3.org/2000/svg" width="914" height="1141">
 <!-- Created with Image Occlusion Enhanced -->
 <g>
  <title>Labels</title>
 </g>
 <g>
  <title>Masks</title>
  <rect id="a45e648938bf400b99299e2b8939457f-ao-1" height="25.71429" width="105.71429" y="88.99996" x="598.42862" stroke="#2D2D2D" fill="#FFEBA2"/>
  <rect id="a45e648938bf400b99299e2b8939457f-ao-2" height="17.14286" width="142.85715" y="117.57139" x="602.71433" stroke="#2D2D2D" fill="#FFEBA2"/>
  <rect id="a45e648938bf400b99299e2b8939457f-ao-3" height="14.28571" width="157.14286" y="138.99997" x="605.57148" stroke="#2D2D2D" fill="#FFEBA2"/>
  <rect id="a45e648938bf400b99299e2b8939457f-ao-4" height="15.71429" width="214.28572" y="158.99997" x="602.71433" stroke="#2D2D2D" fill="#FFEBA2"/>
  <rect id="a45e648938bf400b99299e2b8939457f-ao-5" height="21.42857" width="264.28572" y="181.85711" x="599.85719" stroke="#2D2D2D" fill="#FFEBA2"/>
  <rect id="a45e648938bf400b99299e2b8939457f-ao-6" height="22.85714" width="288.57143" y="218.99997" x="597.00005" stroke="#2D2D2D" fill="#FF7E7E" class="qshape"/>
  <rect id="a45e648938bf400b99299e2b8939457f-ao-7" height="22.85714" width="107.14286" y="238.99997" x="601.28576" stroke="#2D2D2D" fill="#FFEBA2"/>
  <rect id="a45e648938bf400b99299e2b8939457f-ao-8" height="22.85714" width="51.42857" y="296.14283" x="605.57148" stroke="#2D2D2D" fill="#FFEBA2"/>
  <rect id="a45e648938bf400b99299e2b8939457f-ao-9" height="18.57143" width="112.85715" y="324.71425" x="602.71433" stroke="#2D2D2D" fill="#FFEBA2"/>
  <rect id="a45e648938bf400b99299e2b8939457f-ao-10" height="21.42857" width="150" y="347.5714" x="605.57148" stroke="#2D2D2D" fill="#FFEBA2"/>
  <rect id="a45e648938bf400b99299e2b8939457f-ao-11" height="17.14286" width="124.28572" y="367.5714" x="605.57148" stroke="#2D2D2D" fill="#FFEBA2"/>
  <rect id="a45e648938bf400b99299e2b8939457f-ao-12" height="14.28571" width="140" y="386.14283" x="607.00005" stroke="#2D2D2D" fill="#FFEBA2"/>
  <rect id="a45e648938bf400b99299e2b8939457f-ao-13" height="18.57143" width="120" y="408.99997" x="604.1429" stroke="#2D2D2D" fill="#FFEBA2"/>
  <rect id="a45e648938bf400b99299e2b8939457f-ao-14" height="12.85714" width="198.57143" y="427.5714" x="602.71433" stroke="#2D2D2D" fill="#FFEBA2"/>
  <rect id="a45e648938bf400b99299e2b8939457f-ao-15" height="14.28571" width="211.42858" y="447.5714" x="602.71433" stroke="#2D2D2D" fill="#FFEBA2"/>
  <rect id="a45e648938bf400b99299e2b8939457f-ao-16" height="14.28571" width="181.42857" y="467.5714" x="607.00005" stroke="#2D2D2D" fill="#FFEBA2"/>
  <rect id="a45e648938bf400b99299e2b8939457f-ao-17" height="28.57143" width="121.42857" y="563.28569" x="598.42862" stroke="#2D2D2D" fill="#FFEBA2"/>
  <rect id="a45e648938bf400b99299e2b8939457f-ao-18" height="15.71429" width="197.14286" y="596.14283" x="599.85719" stroke="#2D2D2D" fill="#FFEBA2"/>
  <rect id="a45e648938bf400b99299e2b8939457f-ao-19" height="35.71429" width="264.28572" y="611.85712" x="604.1429" stroke="#2D2D2D" fill="#FFEBA2"/>
  <rect id="a45e648938bf400b99299e2b8939457f-ao-20" height="15.71429" width="141.42857" y="654.71426" x="605.57148" stroke="#2D2D2D" fill="#FFEBA2"/>
 </g>
</svg>