<svg xmlns="http://www.w3.org/2000/svg" width="775" height="898">
 <!-- Created with Image Occlusion Enhanced -->
 <g>
  <title>Labels</title>
 </g>
 <g>
  <title>Masks</title>
  <rect id="b76630157ddc4a9d8a43ce5d1c8370cc-ao-1" height="23.59551" width="207.86518" y="199.75285" x="43.67976" stroke="#2D2D2D" fill="#FFEBA2"/>
  <rect id="b76630157ddc4a9d8a43ce5d1c8370cc-ao-2" height="26.96629" width="88.76405" y="185.14611" x="526.82585" stroke="#2D2D2D" fill="#FFEBA2"/>
  <rect id="b76630157ddc4a9d8a43ce5d1c8370cc-ao-3" height="31.46068" width="137.07866" y="234.58431" x="523.45506" stroke="#2D2D2D" fill="#FFEBA2"/>
  <rect id="b76630157ddc4a9d8a43ce5d1c8370cc-ao-4" height="34.83146" width="126.9663" y="244.69667" x="131.32022" stroke="#2D2D2D" fill="#FFEBA2"/>
  <rect id="b76630157ddc4a9d8a43ce5d1c8370cc-ao-5" height="25.8427" width="89.88764" y="282.89892" x="515.58989" stroke="#2D2D2D" fill="#FFEBA2"/>
  <rect id="b76630157ddc4a9d8a43ce5d1c8370cc-ao-6" height="26.96629" width="195.50563" y="297.50566" x="67.27527" stroke="#2D2D2D" fill="#FFEBA2"/>
  <rect id="b76630157ddc4a9d8a43ce5d1c8370cc-ao-7" height="26.96629" width="74.15731" y="342.44948" x="189.74718" stroke="#2D2D2D" fill="#FFEBA2"/>
  <rect id="b76630157ddc4a9d8a43ce5d1c8370cc-ao-8" height="33.70787" width="143.82023" y="387.39331" x="112.21909" stroke="#2D2D2D" fill="#FFEBA2"/>
  <rect id="b76630157ddc4a9d8a43ce5d1c8370cc-ao-9" height="35.95506" width="247.19102" y="360.42701" x="515.58989" stroke="#2D2D2D" fill="#FFEBA2"/>
  <rect id="b76630157ddc4a9d8a43ce5d1c8370cc-ao-10" height="28.08989" width="110.11236" y="461.55061" x="521.20787" stroke="#2D2D2D" fill="#FFEBA2"/>
  <rect id="b76630157ddc4a9d8a43ce5d1c8370cc-ao-11" height="28.08989" width="189.88765" y="567.16859" x="75.14044" stroke="#2D2D2D" fill="#FFEBA2"/>
  <rect id="b76630157ddc4a9d8a43ce5d1c8370cc-ao-12" height="19.10112" width="150.5618" y="604.24725" x="116.71347" stroke="#2D2D2D" fill="#FFEBA2"/>
  <rect id="b76630157ddc4a9d8a43ce5d1c8370cc-ao-13" height="19.10112" width="123.59551" y="678.40455" x="148.17415" stroke="#2D2D2D" fill="#FFEBA2"/>
  <rect id="b76630157ddc4a9d8a43ce5d1c8370cc-ao-14" height="19.10112" width="152.80899" y="751.43826" x="107.72471" stroke="#2D2D2D" fill="#FFEBA2"/>
  <rect id="b76630157ddc4a9d8a43ce5d1c8370cc-ao-15" height="20.22472" width="178.65169" y="839.07872" x="86.37639" stroke="#2D2D2D" fill="#FFEBA2"/>
  <rect id="b76630157ddc4a9d8a43ce5d1c8370cc-ao-16" height="41.57304" width="222.47192" y="555.93264" x="500.98315" stroke="#2D2D2D" fill="#FFEBA2"/>
  <rect id="b76630157ddc4a9d8a43ce5d1c8370cc-ao-17" height="17.97753" width="141.57304" y="606.49444" x="503.23034" stroke="#2D2D2D" fill="#FFEBA2"/>
  <rect id="b76630157ddc4a9d8a43ce5d1c8370cc-ao-18" height="15.73034" width="147.19102" y="632.33713" x="500.98315" stroke="#2D2D2D" fill="#FFEBA2"/>
 </g>
</svg>