<svg xmlns="http://www.w3.org/2000/svg" width="1073" height="969">
 <!-- Created with Image Occlusion Enhanced -->
 <g>
  <title>Labels</title>
 </g>
 <g>
  <title>Masks</title>
  <rect id="cf7e71f463f14acdbb83a4ffb4b8a91c-ao-1" height="19.5122" width="225.60976" y="-0.70736" x="753.8293" stroke="#2D2D2D" fill="#FFEBA2"/>
  <rect id="cf7e71f463f14acdbb83a4ffb4b8a91c-ao-2" height="23.17073" width="236.58537" y="21.24386" x="752.60979" stroke="#2D2D2D" fill="#FFEBA2"/>
  <rect id="cf7e71f463f14acdbb83a4ffb4b8a91c-ao-3" height="17.07317" width="147.56098" y="50.51216" x="755.04881" stroke="#2D2D2D" fill="#FFEBA2"/>
  <rect id="cf7e71f463f14acdbb83a4ffb4b8a91c-ao-4" height="18.29268" width="307.31708" y="77.34143" x="753.8293" stroke="#2D2D2D" fill="#FFEBA2"/>
  <rect id="cf7e71f463f14acdbb83a4ffb4b8a91c-ao-5" height="18.29268" width="306.09757" y="100.51216" x="755.04881" stroke="#2D2D2D" fill="#FFEBA2"/>
  <rect id="cf7e71f463f14acdbb83a4ffb4b8a91c-ao-6" height="19.5122" width="220.73171" y="122.46338" x="753.8293" stroke="#2D2D2D" fill="#FFEBA2"/>
  <rect id="cf7e71f463f14acdbb83a4ffb4b8a91c-ao-7" height="19.5122" width="218.29269" y="150.51216" x="755.04881" stroke="#2D2D2D" fill="#FFEBA2"/>
  <rect id="cf7e71f463f14acdbb83a4ffb4b8a91c-ao-8" height="17.07317" width="231.70732" y="174.9024" x="756.26832" stroke="#2D2D2D" fill="#FFEBA2"/>
  <rect id="cf7e71f463f14acdbb83a4ffb4b8a91c-ao-9" height="46.34146" width="281.70732" y="196.85362" x="752.60979" stroke="#2D2D2D" fill="#FFEBA2"/>
  <rect id="cf7e71f463f14acdbb83a4ffb4b8a91c-ao-10" height="21.95122" width="226.82927" y="291.97558" x="756.26832" stroke="#2D2D2D" fill="#FFEBA2"/>
  <rect id="cf7e71f463f14acdbb83a4ffb4b8a91c-ao-11" height="25.60976" width="168.29269" y="338.31704" x="750.17076" stroke="#2D2D2D" fill="#FFEBA2"/>
  <rect id="cf7e71f463f14acdbb83a4ffb4b8a91c-ao-12" height="28.04878" width="297.56098" y="435.87802" x="751.39027" stroke="#2D2D2D" fill="#FFEBA2"/>
  <rect id="cf7e71f463f14acdbb83a4ffb4b8a91c-ao-13" height="25.60976" width="174.39025" y="488.31704" x="751.39027" stroke="#2D2D2D" fill="#FFEBA2"/>
  
  <rect id="cf7e71f463f14acdbb83a4ffb4b8a91c-ao-15" height="24.39024" width="202.43903" y="540.75607" x="748.95125" stroke="#2D2D2D" fill="#FFEBA2"/>
  <rect id="cf7e71f463f14acdbb83a4ffb4b8a91c-ao-16" height="21.95122" width="317.07318" y="584.65851" x="753.8293" stroke="#2D2D2D" fill="#FFEBA2"/>
  <rect id="cf7e71f463f14acdbb83a4ffb4b8a91c-ao-17" height="21.95122" width="146.34147" y="610.26826" x="756.26832" stroke="#2D2D2D" fill="#FFEBA2"/>
  <rect id="cf7e71f463f14acdbb83a4ffb4b8a91c-ao-18" height="15.85366" width="158.53659" y="639.53656" x="753.8293" stroke="#2D2D2D" fill="#FFEBA2"/>
  <rect id="cf7e71f463f14acdbb83a4ffb4b8a91c-ao-19" height="21.95122" width="221.95122" y="662.70729" x="758.70735" stroke="#2D2D2D" fill="#FFEBA2"/>
 </g>
</svg>