<svg xmlns="http://www.w3.org/2000/svg" width="790" height="890">
 <!-- Created with Image Occlusion Enhanced -->
 <g>
  <title>Labels</title>
 </g>
 <g>
  <title>Masks</title>
  <rect id="d963d68c1c5241828caa5d3decb5d68a-ao-1" height="32.22222" width="174.44444" y="6.66667" x="12.77778" stroke="#2D2D2D" fill="#FFEBA2"/>
  <rect id="d963d68c1c5241828caa5d3decb5d68a-ao-2" height="37.77778" width="113.33333" y="43.33333" x="48.33333" stroke="#2D2D2D" fill="#FFEBA2"/>
  <rect id="d963d68c1c5241828caa5d3decb5d68a-ao-3" height="21.11111" width="100" y="256.66667" x="83.88889" stroke="#2D2D2D" fill="#FFEBA2"/>
  <rect id="d963d68c1c5241828caa5d3decb5d68a-ao-4" height="51.11111" width="195.55556" y="326.66667" x="10.55556" stroke="#2D2D2D" fill="#FFEBA2"/>
  <rect id="d963d68c1c5241828caa5d3decb5d68a-ao-5" height="26.66667" width="195.55556" y="385.55556" x="12.77778" stroke="#2D2D2D" fill="#FFEBA2"/>
  <rect id="d963d68c1c5241828caa5d3decb5d68a-ao-6" height="35.55556" width="132.22222" y="452.22222" x="65" stroke="#2D2D2D" fill="#FF7E7E" class="qshape"/>
  <rect id="d963d68c1c5241828caa5d3decb5d68a-ao-7" height="36.66667" width="114.44444" y="661.11111" x="103.88889" stroke="#2D2D2D" fill="#FFEBA2"/>
  <rect id="d963d68c1c5241828caa5d3decb5d68a-ao-8" height="33.33333" width="127.77778" y="812.22222" x="137.22222" stroke="#2D2D2D" fill="#FFEBA2"/>
  <rect id="d963d68c1c5241828caa5d3decb5d68a-ao-9" height="22.22222" width="175.55556" y="861.11111" x="92.77778" stroke="#2D2D2D" fill="#FFEBA2"/>
  <rect id="d963d68c1c5241828caa5d3decb5d68a-ao-10" height="27.77778" width="141.11111" y="845.55556" x="533.88889" stroke="#2D2D2D" fill="#FFEBA2"/>
  <rect id="d963d68c1c5241828caa5d3decb5d68a-ao-11" height="22.22222" width="166.66667" y="536.66667" x="532.77778" stroke="#2D2D2D" fill="#FFEBA2"/>
  <rect id="d963d68c1c5241828caa5d3decb5d68a-ao-12" height="23.33333" width="191.11111" y="388.88889" x="537.22222" stroke="#2D2D2D" fill="#FFEBA2"/>
  <rect id="d963d68c1c5241828caa5d3decb5d68a-ao-13" height="11.11111" width="86.66667" y="254.44444" x="546.11111" stroke="#2D2D2D" fill="#FFEBA2"/>
  <rect id="d963d68c1c5241828caa5d3decb5d68a-ao-14" height="26.66667" width="111.11111" y="272.22222" x="543.88889" stroke="#2D2D2D" fill="#FFEBA2"/>
  <rect id="d963d68c1c5241828caa5d3decb5d68a-ao-15" height="28.88889" width="174.44444" y="74.44444" x="492.77778" stroke="#2D2D2D" fill="#FFEBA2"/>
  <rect id="d963d68c1c5241828caa5d3decb5d68a-ao-16" height="21.11111" width="161.11111" y="8.88889" x="472.77778" stroke="#2D2D2D" fill="#FFEBA2"/>
 </g>
</svg>