<svg xmlns="http://www.w3.org/2000/svg" width="692" height="658">
 <!-- Created with Image Occlusion Enhanced -->
 <g>
  <title>Labels</title>
 </g>
 <g>
  <title>Masks</title>
  <rect id="e60d8504288343999b41cfbc02d968fd-ao-1" height="36.36364" width="200.82645" y="24.64463" x="418.74379" stroke="#2D2D2D" fill="#FFEBA2"/>
  <rect id="e60d8504288343999b41cfbc02d968fd-ao-2" height="33.8843" width="205.78513" y="73.40497" x="428.66115" stroke="#2D2D2D" fill="#FFEBA2"/>
  <rect id="e60d8504288343999b41cfbc02d968fd-ao-3" height="38.84298" width="240.49587" y="110.59505" x="431.96693" stroke="#2D2D2D" fill="#FFEBA2"/>
  <rect id="e60d8504288343999b41cfbc02d968fd-ao-4" height="33.05785" width="171.90083" y="156.87604" x="435.27272" stroke="#2D2D2D" fill="#FF7E7E" class="qshape"/>
  <rect id="e60d8504288343999b41cfbc02d968fd-ao-5" height="30.57851" width="185.12397" y="435.38844" x="16.26445" stroke="#2D2D2D" fill="#FFEBA2"/>
  <rect id="e60d8504288343999b41cfbc02d968fd-ao-6" height="36.36364" width="199.17356" y="386.62811" x="402.21487" stroke="#2D2D2D" fill="#FFEBA2"/>
  <rect id="e60d8504288343999b41cfbc02d968fd-ao-7" height="29.75207" width="182.64463" y="257.70249" x="426.18181" stroke="#2D2D2D" fill="#FFEBA2"/>
  <rect id="e60d8504288343999b41cfbc02d968fd-ao-8" height="30.57851" width="138.01653" y="391.58679" x="76.59503" stroke="#2D2D2D" fill="#FFEBA2"/>
  <rect id="e60d8504288343999b41cfbc02d968fd-ao-9" height="28.92562" width="181.81818" y="340.34712" x="408.82644" stroke="#2D2D2D" fill="#FFEBA2"/>
  <rect id="e60d8504288343999b41cfbc02d968fd-ao-10" height="29.75207" width="185.12397" y="482.49588" x="6.3471" stroke="#2D2D2D" fill="#FFEBA2"/>
  <rect id="e60d8504288343999b41cfbc02d968fd-ao-11" height="24.79339" width="214.87604" y="297.37191" x="413.78512" stroke="#2D2D2D" fill="#FFEBA2"/>
  <rect id="e60d8504288343999b41cfbc02d968fd-ao-12" height="33.8843" width="275.20661" y="432.08265" x="391.47107" stroke="#2D2D2D" fill="#FFEBA2"/>
  <rect id="e60d8504288343999b41cfbc02d968fd-ao-13" height="35.53719" width="192.56199" y="519.68596" x="380.72726" stroke="#2D2D2D" fill="#FFEBA2"/>
  <rect id="e60d8504288343999b41cfbc02d968fd-ao-14" height="25.61983" width="209.91736" y="478.36365" x="387.33883" stroke="#2D2D2D" fill="#FFEBA2"/>
  <rect id="e60d8504288343999b41cfbc02d968fd-ao-15" height="31.40496" width="210.7438" y="206.46282" x="425.35536" stroke="#2D2D2D" fill="#FFEBA2"/>
 </g>
</svg>